<svg id="Layer_1" data-name="Layer 1" xmlns="http://www.w3.org/2000/svg" viewBox="0 0 2299 543"><defs><style>.cls-1{fill:#fff;}.cls-2{fill:#252628;}</style></defs><path d="M2258,6a33,33,0,1,1-33,33A33,33,0,0,1,2258,6Zm0,59.35A26.32,26.32,0,1,0,2231.65,39,26.32,26.32,0,0,0,2258,65.35Z"/><path d="M2263.7,39.41a8.35,8.35,0,0,1,5.1,4.43c1,1.75,1.84,3.55,2.73,5.34,1,2,2,4,3,6.07,0,.09.08.18.14.31h-9.15a.45.45,0,0,1-.47-.28c-1.43-2.93-2.85-5.86-4.32-8.76a14.7,14.7,0,0,0-1.5-2.28,4.41,4.41,0,0,0-3.25-1.68c-1.16-.1-2.33-.06-3.49-.08l-.1,0v13h-8.9V21l.23,0c4.7,0,9.39,0,14.08,0a20.92,20.92,0,0,1,6.66,1,8.93,8.93,0,0,1,3.74,2.31,7.64,7.64,0,0,1,1.9,4.21,12,12,0,0,1-.27,5.23,7.92,7.92,0,0,1-4.64,5.08C2264.73,39,2264.23,39.2,2263.7,39.41Zm-11.28-3.08h.15c1.35,0,2.69,0,4,0a9.45,9.45,0,0,0,2-.28,3.28,3.28,0,0,0,2.6-2.49,6.52,6.52,0,0,0,0-3.34,3.1,3.1,0,0,0-2.37-2.42,11.37,11.37,0,0,0-2.17-.32c-1.34-.05-2.68,0-4,0h-.21Z"/><path class="cls-1" d="M243.18,333.68a38.69,38.69,0,0,0,0-77.37H127.12A116.07,116.07,0,1,1,125,24.17H301.21a38.69,38.69,0,0,1,0,77.38H127.12a38.69,38.69,0,0,0,0,77.38H243.19a116.07,116.07,0,0,1,0,232.13H49.74a38.69,38.69,0,0,1,0-77.38Z"/><path class="cls-1" d="M593.09,26.15c-105.72,0-191.42,85.71-191.42,191.42S487.37,409,593.09,409s191.42-85.71,191.42-191.43h0C784.51,111.86,698.81,26.15,593.09,26.15Z"/><polygon class="cls-1" points="550.53 281.56 524.89 202.65 592.01 153.88 659.12 202.65 633.49 281.56 550.53 281.56"/><path class="cls-1" d="M591.83,22.38c-107.81,0-195.2,87.39-195.2,195.19s87.39,195.2,195.2,195.2S787,325.38,787,217.57,699.58,22.5,591.83,22.38ZM727.59,322.24,723.9,285l-70.24,17.51-38.4,61.35L649.78,379a171.56,171.56,0,0,1-115.88,0l34.69-15.19-38.34-61.39L460,284.84l-3.76,37.67a170.6,170.6,0,0,1-35.95-104.94c0-1.84,0-3.67.09-5.51l25.24,28.39L492.21,185l-5-72.21-37,8a172.16,172.16,0,0,1,93.68-68l-19.07,32.6L592,112.57l67.11-27.09L640.14,53a172.16,172.16,0,0,1,93.27,67.89l-36.52-8-5,72.2,46.5,55.48,24.92-28c0,1.64.07,3.29.07,5A170.68,170.68,0,0,1,727.59,322.24Z"/><polygon class="cls-2" points="550.53 281.56 524.89 202.65 592.01 153.88 659.12 202.65 633.49 281.56 550.53 281.56"/><path class="cls-2" d="M591.83,22.38c-107.81,0-195.2,87.39-195.2,195.19s87.39,195.2,195.2,195.2S787,325.38,787,217.57,699.58,22.5,591.83,22.38ZM727.59,322.24,723.9,285l-70.24,17.51-38.4,61.35L649.78,379a171.56,171.56,0,0,1-115.88,0l34.69-15.19-38.34-61.39L460,284.84l-3.76,37.67a170.6,170.6,0,0,1-35.95-104.94c0-1.84,0-3.67.09-5.51l25.24,28.39L492.21,185l-5-72.21-37,8a172.16,172.16,0,0,1,93.68-68l-19.07,32.6L592,112.57l67.11-27.09L640.14,53a172.16,172.16,0,0,1,93.27,67.89l-36.52-8-5,72.2,46.5,55.48,24.92-28c0,1.64.07,3.29.07,5A170.68,170.68,0,0,1,727.59,322.24Z"/><path class="cls-1" d="M1017.84,411.06C911,411.24,824.24,324.79,824.06,218S910.33,24.36,1017.17,24.17A193.48,193.48,0,0,1,1154.45,81a39.51,39.51,0,0,1,11.49,27.2,39.36,39.36,0,0,1-38.69,38.69,36.11,36.11,0,0,1-27.2-11.49,114.25,114.25,0,0,0-82.21-33.85,116.07,116.07,0,1,0,82.21,198.28,38.45,38.45,0,0,1,27.2-11.49A39.79,39.79,0,0,1,1165.94,327a38.39,38.39,0,0,1-11.49,27.2A191.73,191.73,0,0,1,1017.84,411.06Z"/><path class="cls-1" d="M1366,411.06c-106.83.18-193.59-86.27-193.77-193.11s86.27-193.59,193.1-193.78A193.5,193.5,0,0,1,1502.64,81a39.56,39.56,0,0,1,11.49,27.2,39.37,39.37,0,0,1-38.69,38.69,36,36,0,0,1-27.2-11.49A114.27,114.27,0,0,0,1366,101.55a116.07,116.07,0,1,0,82.22,198.28,38.43,38.43,0,0,1,27.2-11.49A39.8,39.8,0,0,1,1514.13,327a38.43,38.43,0,0,1-11.49,27.2A191.73,191.73,0,0,1,1366,411.06Z"/><path class="cls-1" d="M1622.31,333.68h193.44a38.69,38.69,0,1,1,0,77.38H1583.62a39,39,0,0,1-38.68-38.69V62.86a39,39,0,0,1,38.68-38.69h232.13a38.69,38.69,0,1,1,0,77.38H1622.31v77.38h154.76a38.69,38.69,0,0,1,0,77.38H1622.31Z"/><path class="cls-1" d="M1960.82,372.37a38.69,38.69,0,1,1-77.37,0V62.86a39,39,0,0,1,38.69-38.69h193.44a116.23,116.23,0,0,1,14.51,231.53l90.08,89.47a37.08,37.08,0,0,1,11.47,27.2A39,39,0,0,1,2193,411.06a37.1,37.1,0,0,1-27.2-11.49L2022.49,256.31h-61.67Zm0-270.82v77.38h154.76a38.69,38.69,0,0,0,0-77.38Z"/><path class="cls-2" d="M1788.81,410a145.75,145.75,0,0,0-16.08,2.55q-3.56.68-16.75,3.73a40.58,40.58,0,0,0-1.47,8.18q-.69,6.24-2.64,27.25-.82,7.86-2.23,52.35a87.46,87.46,0,0,1-1.62,18.34,31.57,31.57,0,0,1-4,8.14,15.41,15.41,0,0,1-10.93,5.12,10.56,10.56,0,0,1-8.11-1.74,14.43,14.43,0,0,1-3.09-9.23,306.11,306.11,0,0,1,2.72-49.25,501.19,501.19,0,0,1,8.1-54.66,13.62,13.62,0,0,1-5.36,1.61l-1.87.17a8.31,8.31,0,0,0-2.11-.21,9.69,9.69,0,0,1-5.65-.63c-1-.67-1.64-2.45-1.89-5.34q-.54-6,7.84-12.26a65.33,65.33,0,0,1,15.57-8.37q3.43-13,5.26-20.18a86.33,86.33,0,0,1,12.63-31.06,35.24,35.24,0,0,1,16.9-10.59,84.21,84.21,0,0,1,15.53-2.5,14.32,14.32,0,0,1,8.55,1.25,8,8,0,0,1,3.33,6.62,19.58,19.58,0,0,1-2.57,12.95,22.2,22.2,0,0,1-9.29,7.62,10.42,10.42,0,0,1-3.34.86,30.37,30.37,0,0,1-4.57-.25,27.92,27.92,0,0,0-5.33-.21,7.41,7.41,0,0,0-4.76,1.84,56.44,56.44,0,0,0-5.6,14q-2.55,7.81-4.91,15.41c.87-.07,4.46-.61,10.76-1.59s10.58-1.59,12.83-1.79a30,30,0,0,1,16.84,1.74,9.08,9.08,0,0,1,3.69,7.46Q1805,408.61,1788.81,410Z"/><path class="cls-2" d="M1903.94,386.48q-9,2.88-19,6.59-1.83.74-17.22,6.82c1.27,1.54,2.6,3,4,4.4a23.74,23.74,0,0,1,2.18,9.67,62.58,62.58,0,0,1-6.69,34.13,110,110,0,0,1-19.88,26.4,41.27,41.27,0,0,1-11.58,8.42,48.74,48.74,0,0,1-15.63,3.44,28.78,28.78,0,0,1-17.15-3.24,21.71,21.71,0,0,1-10.52-18.23,82.29,82.29,0,0,1,3.17-28.9,88.29,88.29,0,0,1,8-20.63,134.48,134.48,0,0,1,18.9-26.69,18,18,0,0,1,10.67-6,7.94,7.94,0,0,1,5.36,1.73,6.54,6.54,0,0,1,3,4.94,36.45,36.45,0,0,1-6.42,17.61q-6.89,12.18-13.66,23.78a45,45,0,0,0-6.39,22.35,10.38,10.38,0,0,0,3,6.76,9.2,9.2,0,0,0,7.59,2.18,24.65,24.65,0,0,0,18.75-15.48,47.22,47.22,0,0,0,5.86-26.3,38.14,38.14,0,0,0-2.06-8.36,87.85,87.85,0,0,1-4.37-15.16q-.81-9.44,25.19-17.75a163,163,0,0,1,34.79-7.6,17.36,17.36,0,0,1,7,.72c2.14.69,3.28,1.67,3.38,2.92a9.15,9.15,0,0,1-3.32,7.5A15.93,15.93,0,0,1,1903.94,386.48Z"/><path class="cls-2" d="M1960.78,394.59a44.58,44.58,0,0,0-19.91,10.84,138.53,138.53,0,0,0-24.52,25.47,47.32,47.32,0,0,0-5.81,15.87,100.64,100.64,0,0,0-2.17,16.4q-.42,8.29-13.58,9.44a9.34,9.34,0,0,1-9.32-4.68,17.49,17.49,0,0,1-2.61-8.12q4.2-17,7.61-31.1a75.15,75.15,0,0,0,2.56-23.83,42.08,42.08,0,0,0-.8-4.86,37.43,37.43,0,0,1-.77-4.48c-.09-1-.18-2-.27-3l.56-2.33a34.59,34.59,0,0,1,4.67-11.59,10.24,10.24,0,0,1,7.29-5.56,9.58,9.58,0,0,1,6.94,2.33,10,10,0,0,1,3.77,7.34,80.18,80.18,0,0,1,.34,12.49c-.77,4.36-1.42,8.54-1.94,12.49q12.24-13.77,22.07-22.79A57.5,57.5,0,0,1,1960,368.12l3.57-.31c1.25-.12,2.51-.29,3.75-.53a19.58,19.58,0,0,1,9,.82c2.1.91,3.3,3.11,3.61,6.62a17.61,17.61,0,0,1-3.76,15.49A28.58,28.58,0,0,1,1960.78,394.59Z"/><path class="cls-2" d="M2052.3,451.44a152.91,152.91,0,0,1-18,11.81,42.16,42.16,0,0,1-14.41,3.35,8.73,8.73,0,0,1-6.29-2.49A9,9,0,0,1,2010,458a168.76,168.76,0,0,1,3-26.71q3.38-21.81,7.68-42.29,8.08-39.78,10.86-51.4,7.53-31,11.66-31.36a21.59,21.59,0,0,1,8.65,1.33q4.89,1.67,5.11,4.1a297.39,297.39,0,0,1-8.8,42.5q-5.85,24.21-7.5,33.46-2.72,14.46-4.08,20.64-3.22,15.09-6.29,29.94,6.49-3.6,13.19-7.41a75.24,75.24,0,0,1,19.15-8.69c1.75-.15,3.72,1,5.9,3.56a12.68,12.68,0,0,1,3.52,6.61q-.09,3.24-9.27,11.06Q2058.55,446.92,2052.3,451.44Z"/><path class="cls-2" d="M2113.14,370.83a89.63,89.63,0,0,1-4.18,23.7q-1.59,5.82-4.8,16.72a13.9,13.9,0,0,0,0,2.66,26.56,26.56,0,0,0,2.3,7.85,26,26,0,0,1,2.15,6.17,26.47,26.47,0,0,1-2,10q-5.88,17.22-17.55,18.23a8.14,8.14,0,0,1-8.59-4.94,30.85,30.85,0,0,1-2.46-10.79,122.08,122.08,0,0,1,2.87-23.56,232.25,232.25,0,0,1,9.5-36.68q7-19.36,14.55-20a5.8,5.8,0,0,1,5.65,2.72A16.55,16.55,0,0,1,2113.14,370.83Zm13-46.27a19.42,19.42,0,0,1-4.3,10.43q-4.59,7-7.8,7.32a23.1,23.1,0,0,1-10.06-4.62q-8.84-5.46-9.21-9.8a23.63,23.63,0,0,1,3.93-9.27q4.93-8.6,9.46-9a16.61,16.61,0,0,1,11.28,4.41,15.37,15.37,0,0,1,6.7,10.51Z"/><path class="cls-2" d="M2198.57,374.18a143.2,143.2,0,0,0-16.09,2.54q-3.54.67-16.73,3.73a38.59,38.59,0,0,0-1.47,8.18q-.69,6.24-2.65,27.25-.83,7.86-2.24,52.35a85.5,85.5,0,0,1-1.62,18.34,31.07,31.07,0,0,1-4,8.14,15.4,15.4,0,0,1-10.92,5.12,10.55,10.55,0,0,1-8.12-1.74,14.43,14.43,0,0,1-3.09-9.23,306.11,306.11,0,0,1,2.72-49.25,498.79,498.79,0,0,1,8.11-54.66,13.72,13.72,0,0,1-5.36,1.61l-1.88.17a8.31,8.31,0,0,0-2.11-.21,9.69,9.69,0,0,1-5.65-.63c-1-.68-1.64-2.45-1.89-5.34q-.53-6,7.85-12.26a64.91,64.91,0,0,1,15.56-8.37q3.43-13,5.26-20.18a86.15,86.15,0,0,1,12.64-31.07,35.13,35.13,0,0,1,16.9-10.58,83.87,83.87,0,0,1,15.51-2.5,14.25,14.25,0,0,1,8.55,1.25,7.93,7.93,0,0,1,3.33,6.63,19.57,19.57,0,0,1-2.56,12.93,22.21,22.21,0,0,1-9.29,7.63,10.42,10.42,0,0,1-3.34.86,30.52,30.52,0,0,1-4.58-.26,29.54,29.54,0,0,0-5.32-.21,7.4,7.4,0,0,0-4.76,1.85,55.91,55.91,0,0,0-5.6,14q-2.57,7.8-4.92,15.41c.88-.07,4.47-.62,10.76-1.6s10.58-1.59,12.84-1.78a29.94,29.94,0,0,1,16.84,1.74,9.08,9.08,0,0,1,3.69,7.48Q2214.76,372.75,2198.57,374.18Z"/><path class="cls-2" d="M2271.09,347a55.27,55.27,0,0,1-1.37,16.81A72.16,72.16,0,0,1,2261,385a55.13,55.13,0,0,1-13.65,15.22q-10.74,7.2-21.3,14.38c.35,1.1.6,1.91.78,2.39.77,1.58,1.72,2.33,2.85,2.23a113,113,0,0,0,33.91-13.4q11.58-6.33,23.35-12.66a3.29,3.29,0,0,1,3.33,1.21,18.6,18.6,0,0,1,1.75,4.79q.71,8.08-15.38,19.36a181.86,181.86,0,0,1-32.39,17.81,96.28,96.28,0,0,1-23.35,8.3,16.92,16.92,0,0,1-15.39-9.08,36.36,36.36,0,0,1-6.48-17.64,83,83,0,0,1,16.65-53.6q18.87-28,38.83-29.76Q2269.88,333.22,2271.09,347Zm-22.26,12.2a13,13,0,0,0-6.9,3.63,65.88,65.88,0,0,0-7,7.34,41.9,41.9,0,0,0-6.38,10.52,86.29,86.29,0,0,0-3.77,11,76.56,76.56,0,0,0,11-8.17,46.14,46.14,0,0,0,6.59-7,76.2,76.2,0,0,0,6.1-8.32,13,13,0,0,0,2.16-7.76c-1-.8-1.55-1.18-1.8-1.16Z"/></svg>